<svg xmlns="http://www.w3.org/2000/svg" width="256" height="256" viewBox="0 0 100 100"><rect width="100" height="100" rx="20" fill="#916ee7"></rect><path fill="#fff" d="M73.53 17.78Q77.31 17.78 79.34 19.98Q81.36 22.19 81.00 25.88L81.00 25.88L77.22 73.94Q76.86 77.72 74.52 79.97Q72.18 82.22 68.49 82.22L68.49 82.22Q64.80 82.22 62.73 80.01Q60.66 77.81 61.02 74.03L61.02 74.03L62.46 56.03L36.63 56.03L35.19 73.94Q34.83 77.72 32.49 79.97Q30.15 82.22 26.46 82.22L26.46 82.22Q22.68 82.22 20.66 80.01Q18.63 77.81 18.99 74.03L18.99 74.03L22.77 25.97Q23.13 22.19 25.47 19.98Q27.81 17.78 31.50 17.78L31.50 17.78Q35.28 17.78 37.31 19.98Q39.33 22.19 38.97 25.88L38.97 25.88L37.62 42.89L63.45 42.89L64.80 25.97Q65.16 22.19 67.50 19.98Q69.84 17.78 73.53 17.78L73.53 17.78Z"></path></svg>